# Blender v2.70 (sub 0) OBJ File: 'Gears.blend'
# www.blender.org
o Gear.003
v 0.251665 -0.100000 -0.104243
v 0.226492 -0.100000 -0.151337
v 0.192616 -0.100000 -0.192616
v 0.151337 -0.100000 -0.226492
v 0.412050 -0.100000 -0.170677
v 0.370835 -0.100000 -0.247784
v 0.315370 -0.100000 -0.315370
v 0.247784 -0.100000 -0.370835
v 0.415735 -0.100000 -0.277785
v 0.353553 -0.100000 -0.353553
v 0.277785 -0.100000 -0.415735
v 0.425959 -0.100000 -0.334509
v 0.382973 -0.100000 -0.382973
v 0.334508 -0.100000 -0.425959
v 0.251665 0.100000 -0.104243
v 0.226492 0.100000 -0.151337
v 0.192616 0.100000 -0.192616
v 0.151337 0.100000 -0.226492
v 0.412050 0.100000 -0.170677
v 0.370835 0.100000 -0.247784
v 0.315370 0.100000 -0.315370
v 0.247784 0.100000 -0.370835
v 0.415735 0.100000 -0.277785
v 0.353553 0.100000 -0.353553
v 0.277785 0.100000 -0.415735
v 0.425959 0.100000 -0.334509
v 0.382973 0.100000 -0.382973
v 0.334508 0.100000 -0.425959
v 0.104243 -0.100000 -0.251665
v 0.053143 -0.100000 -0.267166
v -0.000000 -0.100000 -0.272400
v -0.053143 -0.100000 -0.267166
v 0.170677 -0.100000 -0.412050
v 0.087010 -0.100000 -0.437430
v -0.000000 -0.100000 -0.446000
v -0.087010 -0.100000 -0.437430
v 0.097545 -0.100000 -0.490393
v -0.000000 -0.100000 -0.500000
v -0.097545 -0.100000 -0.490393
v 0.064665 -0.100000 -0.537732
v -0.000000 -0.100000 -0.541606
v -0.064665 -0.100000 -0.537732
v 0.104243 0.100000 -0.251665
v 0.053143 0.100000 -0.267166
v -0.000000 0.100000 -0.272400
v -0.053143 0.100000 -0.267166
v 0.170677 0.100000 -0.412050
v 0.087010 0.100000 -0.437430
v -0.000000 0.100000 -0.446000
v -0.087010 0.100000 -0.437430
v 0.097545 0.100000 -0.490393
v -0.000000 0.100000 -0.500000
v -0.097545 0.100000 -0.490393
v 0.064665 0.100000 -0.537732
v -0.000000 0.100000 -0.541606
v -0.064665 0.100000 -0.537732
v -0.104243 -0.100000 -0.251665
v -0.151337 -0.100000 -0.226492
v -0.192616 -0.100000 -0.192616
v -0.226492 -0.100000 -0.151337
v -0.170677 -0.100000 -0.412050
v -0.247784 -0.100000 -0.370835
v -0.315370 -0.100000 -0.315370
v -0.370835 -0.100000 -0.247784
v -0.277785 -0.100000 -0.415735
v -0.353553 -0.100000 -0.353553
v -0.415735 -0.100000 -0.277785
v -0.334509 -0.100000 -0.425959
v -0.382973 -0.100000 -0.382973
v -0.425959 -0.100000 -0.334508
v -0.104243 0.100000 -0.251665
v -0.151337 0.100000 -0.226492
v -0.192616 0.100000 -0.192616
v -0.226492 0.100000 -0.151337
v -0.170677 0.100000 -0.412050
v -0.247784 0.100000 -0.370835
v -0.315370 0.100000 -0.315370
v -0.370835 0.100000 -0.247784
v -0.277785 0.100000 -0.415735
v -0.353553 0.100000 -0.353553
v -0.415735 0.100000 -0.277785
v -0.334509 0.100000 -0.425959
v -0.382973 0.100000 -0.382973
v -0.425959 0.100000 -0.334508
v -0.251665 -0.100000 -0.104243
v -0.267166 -0.100000 -0.053143
v -0.272400 -0.100000 0.000000
v -0.267166 -0.100000 0.053143
v -0.412050 -0.100000 -0.170677
v -0.437430 -0.100000 -0.087010
v -0.446000 -0.100000 0.000000
v -0.437430 -0.100000 0.087010
v -0.490393 -0.100000 -0.097545
v -0.500000 -0.100000 0.000000
v -0.490393 -0.100000 0.097545
v -0.537732 -0.100000 -0.064665
v -0.541606 -0.100000 0.000000
v -0.537732 -0.100000 0.064665
v -0.251665 0.100000 -0.104243
v -0.267166 0.100000 -0.053143
v -0.272400 0.100000 0.000000
v -0.267166 0.100000 0.053143
v -0.412050 0.100000 -0.170677
v -0.437430 0.100000 -0.087010
v -0.446000 0.100000 0.000000
v -0.437430 0.100000 0.087010
v -0.490393 0.100000 -0.097545
v -0.500000 0.100000 0.000000
v -0.490393 0.100000 0.097545
v -0.537732 0.100000 -0.064665
v -0.541606 0.100000 0.000000
v -0.537732 0.100000 0.064665
v -0.251665 -0.100000 0.104243
v -0.226492 -0.100000 0.151337
v -0.192616 -0.100000 0.192616
v -0.151337 -0.100000 0.226492
v -0.412050 -0.100000 0.170677
v -0.370835 -0.100000 0.247784
v -0.315370 -0.100000 0.315370
v -0.247784 -0.100000 0.370835
v -0.415735 -0.100000 0.277785
v -0.353553 -0.100000 0.353553
v -0.277785 -0.100000 0.415735
v -0.425959 -0.100000 0.334509
v -0.382973 -0.100000 0.382973
v -0.334508 -0.100000 0.425959
v -0.251665 0.100000 0.104243
v -0.226492 0.100000 0.151337
v -0.192616 0.100000 0.192616
v -0.151337 0.100000 0.226492
v -0.412050 0.100000 0.170677
v -0.370835 0.100000 0.247784
v -0.315370 0.100000 0.315370
v -0.247784 0.100000 0.370835
v -0.415735 0.100000 0.277785
v -0.353553 0.100000 0.353553
v -0.277785 0.100000 0.415735
v -0.425959 0.100000 0.334509
v -0.382973 0.100000 0.382973
v -0.334508 0.100000 0.425959
v -0.104243 -0.100000 0.251665
v -0.053143 -0.100000 0.267166
v 0.000000 -0.100000 0.272400
v 0.053143 -0.100000 0.267166
v -0.170677 -0.100000 0.412050
v -0.087010 -0.100000 0.437430
v 0.000000 -0.100000 0.446000
v 0.087010 -0.100000 0.437430
v -0.097545 -0.100000 0.490393
v 0.000000 -0.100000 0.500000
v 0.097545 -0.100000 0.490393
v -0.064665 -0.100000 0.537732
v 0.000000 -0.100000 0.541606
v 0.064665 -0.100000 0.537732
v -0.104243 0.100000 0.251665
v -0.053143 0.100000 0.267166
v 0.000000 0.100000 0.272400
v 0.053143 0.100000 0.267166
v -0.170677 0.100000 0.412050
v -0.087010 0.100000 0.437430
v 0.000000 0.100000 0.446000
v 0.087010 0.100000 0.437430
v -0.097545 0.100000 0.490393
v 0.000000 0.100000 0.500000
v 0.097545 0.100000 0.490393
v -0.064665 0.100000 0.537732
v 0.000000 0.100000 0.541606
v 0.064665 0.100000 0.537732
v 0.104243 -0.100000 0.251665
v 0.151337 -0.100000 0.226492
v 0.192616 -0.100000 0.192616
v 0.226492 -0.100000 0.151337
v 0.170677 -0.100000 0.412050
v 0.247784 -0.100000 0.370835
v 0.315370 -0.100000 0.315370
v 0.370835 -0.100000 0.247784
v 0.277785 -0.100000 0.415735
v 0.353553 -0.100000 0.353553
v 0.415735 -0.100000 0.277785
v 0.334509 -0.100000 0.425959
v 0.382973 -0.100000 0.382973
v 0.425959 -0.100000 0.334508
v 0.104243 0.100000 0.251665
v 0.151337 0.100000 0.226492
v 0.192616 0.100000 0.192616
v 0.226492 0.100000 0.151337
v 0.170677 0.100000 0.412050
v 0.247784 0.100000 0.370835
v 0.315370 0.100000 0.315370
v 0.370835 0.100000 0.247784
v 0.277785 0.100000 0.415735
v 0.353553 0.100000 0.353553
v 0.415735 0.100000 0.277785
v 0.334509 0.100000 0.425959
v 0.382973 0.100000 0.382973
v 0.425959 0.100000 0.334508
v 0.251665 -0.100000 0.104243
v 0.267166 -0.100000 0.053143
v 0.272400 -0.100000 -0.000000
v 0.267166 -0.100000 -0.053143
v 0.412050 -0.100000 0.170677
v 0.437430 -0.100000 0.087010
v 0.446000 -0.100000 -0.000000
v 0.437430 -0.100000 -0.087010
v 0.490393 -0.100000 0.097545
v 0.500000 -0.100000 -0.000000
v 0.490393 -0.100000 -0.097545
v 0.537732 -0.100000 0.064665
v 0.541606 -0.100000 -0.000000
v 0.537732 -0.100000 -0.064665
v 0.251665 0.100000 0.104243
v 0.267166 0.100000 0.053143
v 0.272400 0.100000 -0.000000
v 0.267166 0.100000 -0.053143
v 0.412050 0.100000 0.170677
v 0.437430 0.100000 0.087010
v 0.446000 0.100000 -0.000000
v 0.437430 0.100000 -0.087010
v 0.490393 0.100000 0.097545
v 0.500000 0.100000 -0.000000
v 0.490393 0.100000 -0.097545
v 0.537732 0.100000 0.064665
v 0.541606 0.100000 -0.000000
v 0.537732 0.100000 -0.064665
v -0.276279 0.028701 0.032596
v 0.276279 0.028701 0.032596
v 0.276279 0.028701 -0.032596
v -0.276279 0.028701 -0.032596
v -0.276279 -0.028701 0.032596
v 0.276279 -0.028701 0.032596
v 0.276279 -0.028701 -0.032596
v -0.276279 -0.028701 -0.032596
v -0.032596 -0.028701 0.276279
v -0.032596 -0.028701 -0.276279
v 0.032596 -0.028701 -0.276279
v 0.032596 -0.028701 0.276279
v -0.032596 0.028701 0.276279
v -0.032596 0.028701 -0.276279
v 0.032596 0.028701 -0.276279
v 0.032596 0.028701 0.276279
v 0.057402 0.057402 0.057402
v 0.057402 0.057402 -0.057402
v -0.057402 0.057402 -0.057402
v -0.057402 0.057402 0.057402
v 0.057402 -0.057402 0.057402
v 0.057402 -0.057402 -0.057402
v -0.057402 -0.057402 -0.057402
v -0.057402 -0.057402 0.057402
vn 0.000000 -1.000000 0.000000
vn 0.000000 1.000000 0.000000
vn 0.881921 0.000000 -0.471397
vn 0.555570 0.000000 0.831469
vn 0.984141 0.000000 0.177385
vn 0.748129 0.000000 -0.663553
vn 0.663553 0.000000 -0.748129
vn -0.177387 0.000000 -0.984141
vn -0.831470 0.000000 -0.555570
vn 0.290285 0.000000 -0.956940
vn 0.980785 0.000000 0.195091
vn 0.821323 0.000000 -0.570463
vn 0.059804 0.000000 -0.998210
vn -0.059805 0.000000 -0.998210
vn -0.821324 0.000000 -0.570462
vn -0.980785 0.000000 0.195091
vn 0.471397 0.000000 -0.881921
vn -0.471397 0.000000 -0.881921
vn 0.831470 0.000000 -0.555570
vn 0.177386 0.000000 -0.984141
vn -0.663553 0.000000 -0.748129
vn -0.748129 0.000000 -0.663553
vn -0.984141 0.000000 0.177386
vn -0.555570 0.000000 0.831469
vn -0.290285 0.000000 -0.956940
vn -0.956940 0.000000 -0.290285
vn 0.195091 0.000000 -0.980785
vn -0.570463 0.000000 -0.821323
vn -0.998210 0.000000 -0.059804
vn -0.998210 0.000000 0.059804
vn -0.570462 0.000000 0.821324
vn 0.195091 0.000000 0.980785
vn -0.881921 0.000000 -0.471396
vn -0.881921 0.000000 0.471397
vn -0.555570 0.000000 -0.831469
vn -0.984141 0.000000 -0.177385
vn -0.748129 0.000000 0.663553
vn -0.663553 0.000000 0.748129
vn 0.177387 0.000000 0.984141
vn 0.831470 0.000000 0.555570
vn -0.956940 0.000000 0.290285
vn -0.290285 0.000000 0.956940
vn -0.980785 0.000000 -0.195091
vn -0.821323 0.000000 0.570463
vn -0.059804 0.000000 0.998210
vn 0.059805 0.000000 0.998210
vn 0.821324 0.000000 0.570462
vn 0.980785 0.000000 -0.195091
vn -0.471397 0.000000 0.881921
vn 0.471397 0.000000 0.881921
vn -0.831470 0.000000 0.555570
vn -0.177386 0.000000 0.984141
vn 0.663553 0.000000 0.748129
vn 0.748129 0.000000 0.663553
vn 0.984141 0.000000 -0.177386
vn 0.555570 0.000000 -0.831469
vn 0.290285 0.000000 0.956940
vn 0.956940 0.000000 0.290285
vn -0.195091 0.000000 0.980785
vn 0.570463 0.000000 0.821323
vn 0.998210 0.000000 0.059804
vn 0.998210 0.000000 -0.059804
vn 0.570462 0.000000 -0.821324
vn -0.195090 0.000000 -0.980785
vn 0.881921 0.000000 0.471396
vn 0.956940 0.000000 -0.290285
vn -1.000000 0.000000 -0.000002
vn -0.000001 0.000000 1.000000
vn 1.000000 0.000000 0.000003
vn 0.000001 0.000000 -1.000000
vn -1.000000 0.000000 0.000000
vn 0.000002 0.000000 -1.000000
vn 1.000000 0.000000 0.000000
vn -0.000000 0.000000 1.000000
vn 0.000000 0.000000 -1.000000
vn 0.881922 0.000000 0.471396
vn 0.995185 0.000000 0.098017
vn 0.995185 0.000000 -0.098018
vn 0.098018 0.000000 -0.995185
vn -0.995185 0.000000 -0.098017
vn 0.773011 0.000000 0.634393
vn 0.634393 0.000000 -0.773011
vn 0.098017 0.000000 0.995185
vn -0.773011 0.000000 0.634393
vn -0.956940 0.000000 -0.290284
vn -0.098017 0.000000 -0.995185
vn -0.098018 0.000000 0.995185
vn -0.881922 0.000000 -0.471396
vn 0.634393 0.000000 0.773011
vn 0.290284 0.000000 0.956941
vn 0.773011 0.000000 -0.634393
vn -0.995185 0.000000 0.098018
vn -0.773011 0.000000 -0.634393
vn -0.290284 0.000000 -0.956941
vn -0.956940 0.000000 0.290284
vn -0.634393 0.000000 0.773011
vn -0.634393 0.000000 -0.773011
vn 0.956940 0.000000 0.290284
vn -0.290284 0.000000 0.956941
vn 0.956940 0.000000 -0.290284
vn 0.290284 0.000000 -0.956941
vn -0.177386 0.000000 -0.984141
vn 0.980785 0.000000 0.195090
vn 0.059805 0.000000 -0.998210
vn -0.059804 0.000000 -0.998210
vn 0.177384 0.000000 -0.984142
vn -0.663554 0.000000 -0.748129
vn -0.748129 0.000000 -0.663554
vn -0.555570 0.000000 0.831470
vn 0.195090 0.000000 -0.980785
vn 0.195090 0.000000 0.980785
vn 0.177386 0.000000 0.984141
vn -0.980785 0.000000 -0.195090
vn -0.059805 0.000000 0.998210
vn 0.059804 0.000000 0.998210
vn -0.177384 0.000000 0.984142
vn 0.663554 0.000000 0.748129
vn 0.748129 0.000000 0.663554
vn 0.555570 0.000000 -0.831470
vn -0.195090 0.000000 0.980785
vn -0.195091 0.000000 -0.980785
vn 0.881921 0.000000 0.471397
vn 0.098016 0.000000 -0.995185
vn -0.471398 0.000000 -0.881921
vn -0.773010 0.000000 0.634393
vn -0.098016 0.000000 0.995185
vn -0.881921 0.000000 -0.471397
vn 0.773010 0.000000 -0.634393
vn 0.471398 0.000000 0.881921
s off
f 1//1 2//1 6//1
f 2//1 3//1 7//1
f 7//1 3//1 4//1
f 6//1 7//1 10//1
f 7//1 8//1 11//1
f 9//1 10//1 13//1
f 13//1 10//1 11//1
f 15//2 19//2 20//2
f 16//2 20//2 21//2
f 21//2 22//2 18//2
f 20//2 23//2 24//2
f 21//2 24//2 25//2
f 23//2 26//2 27//2
f 27//2 28//2 25//2
f 5//3 6//3 20//3
f 6//4 9//4 23//4
f 9//5 12//5 26//5
f 12//6 13//6 27//6
f 13//7 14//7 28//7
f 14//8 11//8 25//8
f 11//9 8//9 22//9
f 29//1 30//1 34//1
f 30//1 31//1 35//1
f 35//1 31//1 32//1
f 37//1 34//1 35//1
f 38//1 35//1 36//1
f 37//1 38//1 41//1
f 41//1 38//1 39//1
f 43//2 47//2 48//2
f 44//2 48//2 49//2
f 49//2 50//2 46//2
f 51//2 52//2 49//2
f 52//2 53//2 50//2
f 51//2 54//2 55//2
f 55//2 56//2 53//2
f 33//10 34//10 48//10
f 34//11 37//11 51//11
f 37//12 40//12 54//12
f 40//13 41//13 55//13
f 41//14 42//14 56//14
f 42//15 39//15 53//15
f 39//16 36//16 50//16
f 29//1 33//1 8//1
f 33//17 47//17 22//17
f 47//2 43//2 18//2
f 61//1 57//1 58//1
f 58//1 59//1 63//1
f 63//1 59//1 60//1
f 62//1 63//1 66//1
f 63//1 64//1 67//1
f 65//1 66//1 69//1
f 69//1 66//1 67//1
f 75//2 76//2 72//2
f 72//2 76//2 77//2
f 77//2 78//2 74//2
f 79//2 80//2 77//2
f 80//2 81//2 78//2
f 79//2 82//2 83//2
f 83//2 84//2 81//2
f 61//18 62//18 76//18
f 62//19 65//19 79//19
f 65//20 68//20 82//20
f 68//21 69//21 83//21
f 69//22 70//22 84//22
f 70//23 67//23 81//23
f 67//24 64//24 78//24
f 57//1 61//1 36//1
f 61//25 75//25 50//25
f 75//2 71//2 46//2
f 85//1 86//1 90//1
f 86//1 87//1 91//1
f 87//1 88//1 92//1
f 90//1 91//1 94//1
f 94//1 91//1 92//1
f 93//1 94//1 97//1
f 97//1 94//1 95//1
f 103//2 104//2 100//2
f 104//2 105//2 101//2
f 105//2 106//2 102//2
f 107//2 108//2 105//2
f 108//2 109//2 106//2
f 107//2 110//2 111//2
f 111//2 112//2 109//2
f 89//26 90//26 104//26
f 90//27 93//27 107//27
f 93//28 96//28 110//28
f 96//29 97//29 111//29
f 97//30 98//30 112//30
f 98//31 95//31 109//31
f 95//32 92//32 106//32
f 85//1 89//1 64//1
f 89//33 103//33 78//33
f 103//2 99//2 74//2
f 113//1 114//1 118//1
f 114//1 115//1 119//1
f 119//1 115//1 116//1
f 118//1 119//1 122//1
f 119//1 120//1 123//1
f 121//1 122//1 125//1
f 125//1 122//1 123//1
f 127//2 131//2 132//2
f 128//2 132//2 133//2
f 133//2 134//2 130//2
f 132//2 135//2 136//2
f 133//2 136//2 137//2
f 135//2 138//2 139//2
f 139//2 140//2 137//2
f 117//34 118//34 132//34
f 118//35 121//35 135//35
f 121//36 124//36 138//36
f 124//37 125//37 139//37
f 125//38 126//38 140//38
f 126//39 123//39 137//39
f 123//40 120//40 134//40
f 113//1 117//1 92//1
f 117//41 131//41 106//41
f 131//2 127//2 102//2
f 141//1 142//1 146//1
f 142//1 143//1 147//1
f 147//1 143//1 144//1
f 149//1 146//1 147//1
f 150//1 147//1 148//1
f 149//1 150//1 153//1
f 153//1 150//1 151//1
f 155//2 159//2 160//2
f 156//2 160//2 161//2
f 161//2 162//2 158//2
f 163//2 164//2 161//2
f 164//2 165//2 162//2
f 163//2 166//2 167//2
f 167//2 168//2 165//2
f 145//42 146//42 160//42
f 146//43 149//43 163//43
f 149//44 152//44 166//44
f 152//45 153//45 167//45
f 153//46 154//46 168//46
f 154//47 151//47 165//47
f 151//48 148//48 162//48
f 141//1 145//1 120//1
f 145//49 159//49 134//49
f 159//2 155//2 130//2
f 173//1 169//1 170//1
f 170//1 171//1 175//1
f 175//1 171//1 172//1
f 174//1 175//1 178//1
f 175//1 176//1 179//1
f 177//1 178//1 181//1
f 181//1 178//1 179//1
f 187//2 188//2 184//2
f 184//2 188//2 189//2
f 189//2 190//2 186//2
f 191//2 192//2 189//2
f 192//2 193//2 190//2
f 191//2 194//2 195//2
f 195//2 196//2 193//2
f 173//50 174//50 188//50
f 174//51 177//51 191//51
f 177//52 180//52 194//52
f 180//53 181//53 195//53
f 181//54 182//54 196//54
f 182//55 179//55 193//55
f 179//56 176//56 190//56
f 169//1 173//1 148//1
f 173//57 187//57 162//57
f 187//2 183//2 158//2
f 197//1 198//1 202//1
f 198//1 199//1 203//1
f 199//1 200//1 204//1
f 202//1 203//1 206//1
f 206//1 203//1 204//1
f 205//1 206//1 209//1
f 209//1 206//1 207//1
f 215//2 216//2 212//2
f 216//2 217//2 213//2
f 217//2 218//2 214//2
f 219//2 220//2 217//2
f 220//2 221//2 218//2
f 219//2 222//2 223//2
f 223//2 224//2 221//2
f 201//58 202//58 216//58
f 202//59 205//59 219//59
f 205//60 208//60 222//60
f 208//61 209//61 223//61
f 209//62 210//62 224//62
f 210//63 207//63 221//63
f 221//64 207//64 204//64
f 197//1 201//1 176//1
f 201//65 215//65 190//65
f 190//2 215//2 211//2
f 1//1 5//1 204//1
f 5//66 19//66 218//66
f 19//2 15//2 214//2
f 225//2 226//2 227//2
f 231//1 230//1 229//1
f 228//67 232//67 229//67
f 225//68 229//68 230//68
f 226//69 230//69 231//69
f 227//70 231//70 232//70
f 238//71 234//71 233//71
f 239//72 235//72 234//72
f 240//73 236//73 235//73
f 237//68 233//68 236//68
f 234//1 235//1 236//1
f 240//2 239//2 238//2
f 242//2 243//2 244//2
f 247//1 246//1 245//1
f 244//74 248//74 245//74
f 241//73 245//73 246//73
f 242//75 246//75 247//75
f 243//71 247//71 248//71
f 85//76 60//76 74//76
f 86//77 100//77 101//77
f 114//3 113//3 127//3
f 87//78 101//78 102//78
f 143//79 142//79 156//79
f 198//80 212//80 213//80
f 59//81 73//81 74//81
f 115//82 129//82 130//82
f 32//83 31//83 45//83
f 169//18 183//18 184//18
f 3//84 2//84 16//84
f 197//85 211//85 212//85
f 144//86 143//86 157//86
f 31//87 30//87 44//87
f 197//88 172//88 186//88
f 58//89 72//89 73//89
f 1//34 15//34 16//34
f 32//90 46//90 71//90
f 115//91 114//91 128//91
f 4//49 18//49 43//49
f 199//92 213//92 214//92
f 172//93 171//93 185//93
f 58//50 57//50 71//50
f 144//94 158//94 183//94
f 200//95 214//95 15//95
f 3//96 17//96 18//96
f 170//97 184//97 185//97
f 85//98 99//98 100//98
f 29//99 43//99 44//99
f 88//100 102//100 127//100
f 141//101 155//101 156//101
f 116//17 130//17 155//17
f 5//1 1//1 6//1
f 6//1 2//1 7//1
f 8//1 7//1 4//1
f 9//1 6//1 10//1
f 10//1 7//1 11//1
f 12//1 9//1 13//1
f 14//1 13//1 11//1
f 16//2 15//2 20//2
f 17//2 16//2 21//2
f 17//2 21//2 18//2
f 21//2 20//2 24//2
f 22//2 21//2 25//2
f 24//2 23//2 27//2
f 24//2 27//2 25//2
f 19//3 5//3 20//3
f 20//4 6//4 23//4
f 23//5 9//5 26//5
f 26//6 12//6 27//6
f 27//7 13//7 28//7
f 28//102 14//102 25//102
f 25//9 11//9 22//9
f 33//1 29//1 34//1
f 34//1 30//1 35//1
f 36//1 35//1 32//1
f 38//1 37//1 35//1
f 39//1 38//1 36//1
f 40//1 37//1 41//1
f 42//1 41//1 39//1
f 44//2 43//2 48//2
f 45//2 44//2 49//2
f 45//2 49//2 46//2
f 48//2 51//2 49//2
f 49//2 52//2 50//2
f 52//2 51//2 55//2
f 52//2 55//2 53//2
f 47//10 33//10 48//10
f 48//103 34//103 51//103
f 51//12 37//12 54//12
f 54//104 40//104 55//104
f 55//105 41//105 56//105
f 56//15 42//15 53//15
f 53//16 39//16 50//16
f 4//1 29//1 8//1
f 8//17 33//17 22//17
f 22//2 47//2 18//2
f 62//1 61//1 58//1
f 62//1 58//1 63//1
f 64//1 63//1 60//1
f 65//1 62//1 66//1
f 66//1 63//1 67//1
f 68//1 65//1 69//1
f 70//1 69//1 67//1
f 71//2 75//2 72//2
f 73//2 72//2 77//2
f 73//2 77//2 74//2
f 76//2 79//2 77//2
f 77//2 80//2 78//2
f 80//2 79//2 83//2
f 80//2 83//2 81//2
f 75//18 61//18 76//18
f 76//19 62//19 79//19
f 79//106 65//106 82//106
f 82//107 68//107 83//107
f 83//108 69//108 84//108
f 84//23 70//23 81//23
f 81//109 67//109 78//109
f 32//1 57//1 36//1
f 36//25 61//25 50//25
f 50//2 75//2 46//2
f 89//1 85//1 90//1
f 90//1 86//1 91//1
f 91//1 87//1 92//1
f 93//1 90//1 94//1
f 95//1 94//1 92//1
f 96//1 93//1 97//1
f 98//1 97//1 95//1
f 99//2 103//2 100//2
f 100//2 104//2 101//2
f 101//2 105//2 102//2
f 104//2 107//2 105//2
f 105//2 108//2 106//2
f 108//2 107//2 111//2
f 108//2 111//2 109//2
f 103//26 89//26 104//26
f 104//110 90//110 107//110
f 107//28 93//28 110//28
f 110//29 96//29 111//29
f 111//30 97//30 112//30
f 112//31 98//31 109//31
f 109//111 95//111 106//111
f 60//1 85//1 64//1
f 64//33 89//33 78//33
f 78//2 103//2 74//2
f 117//1 113//1 118//1
f 118//1 114//1 119//1
f 120//1 119//1 116//1
f 121//1 118//1 122//1
f 122//1 119//1 123//1
f 124//1 121//1 125//1
f 126//1 125//1 123//1
f 128//2 127//2 132//2
f 129//2 128//2 133//2
f 129//2 133//2 130//2
f 133//2 132//2 136//2
f 134//2 133//2 137//2
f 136//2 135//2 139//2
f 136//2 139//2 137//2
f 131//34 117//34 132//34
f 132//35 118//35 135//35
f 135//36 121//36 138//36
f 138//37 124//37 139//37
f 139//38 125//38 140//38
f 140//112 126//112 137//112
f 137//40 123//40 134//40
f 88//1 113//1 92//1
f 92//41 117//41 106//41
f 106//2 131//2 102//2
f 145//1 141//1 146//1
f 146//1 142//1 147//1
f 148//1 147//1 144//1
f 150//1 149//1 147//1
f 151//1 150//1 148//1
f 152//1 149//1 153//1
f 154//1 153//1 151//1
f 156//2 155//2 160//2
f 157//2 156//2 161//2
f 157//2 161//2 158//2
f 160//2 163//2 161//2
f 161//2 164//2 162//2
f 164//2 163//2 167//2
f 164//2 167//2 165//2
f 159//42 145//42 160//42
f 160//113 146//113 163//113
f 163//44 149//44 166//44
f 166//114 152//114 167//114
f 167//115 153//115 168//115
f 168//47 154//47 165//47
f 165//48 151//48 162//48
f 116//1 141//1 120//1
f 120//49 145//49 134//49
f 134//2 159//2 130//2
f 174//1 173//1 170//1
f 174//1 170//1 175//1
f 176//1 175//1 172//1
f 177//1 174//1 178//1
f 178//1 175//1 179//1
f 180//1 177//1 181//1
f 182//1 181//1 179//1
f 183//2 187//2 184//2
f 185//2 184//2 189//2
f 185//2 189//2 186//2
f 188//2 191//2 189//2
f 189//2 192//2 190//2
f 192//2 191//2 195//2
f 192//2 195//2 193//2
f 187//50 173//50 188//50
f 188//51 174//51 191//51
f 191//116 177//116 194//116
f 194//117 180//117 195//117
f 195//118 181//118 196//118
f 196//55 182//55 193//55
f 193//119 179//119 190//119
f 144//1 169//1 148//1
f 148//57 173//57 162//57
f 162//2 187//2 158//2
f 201//1 197//1 202//1
f 202//1 198//1 203//1
f 203//1 199//1 204//1
f 205//1 202//1 206//1
f 207//1 206//1 204//1
f 208//1 205//1 209//1
f 210//1 209//1 207//1
f 211//2 215//2 212//2
f 212//2 216//2 213//2
f 213//2 217//2 214//2
f 216//2 219//2 217//2
f 217//2 220//2 218//2
f 220//2 219//2 223//2
f 220//2 223//2 221//2
f 215//58 201//58 216//58
f 216//120 202//120 219//120
f 219//60 205//60 222//60
f 222//61 208//61 223//61
f 223//62 209//62 224//62
f 224//63 210//63 221//63
f 218//121 221//121 204//121
f 172//1 197//1 176//1
f 176//65 201//65 190//65
f 186//2 190//2 211//2
f 200//1 1//1 204//1
f 204//66 5//66 218//66
f 218//2 19//2 214//2
f 228//2 225//2 227//2
f 232//1 231//1 229//1
f 225//67 228//67 229//67
f 226//68 225//68 230//68
f 227//69 226//69 231//69
f 228//70 227//70 232//70
f 237//71 238//71 233//71
f 238//72 239//72 234//72
f 239//73 240//73 235//73
f 240//68 237//68 236//68
f 233//1 234//1 236//1
f 237//2 240//2 238//2
f 241//2 242//2 244//2
f 248//1 247//1 245//1
f 241//74 244//74 245//74
f 242//73 241//73 246//73
f 243//75 242//75 247//75
f 244//71 243//71 248//71
f 99//122 85//122 74//122
f 87//77 86//77 101//77
f 128//3 114//3 127//3
f 88//78 87//78 102//78
f 157//123 143//123 156//123
f 199//80 198//80 213//80
f 60//81 59//81 74//81
f 116//82 115//82 130//82
f 46//83 32//83 45//83
f 170//124 169//124 184//124
f 17//125 3//125 16//125
f 198//85 197//85 212//85
f 158//86 144//86 157//86
f 45//126 31//126 44//126
f 211//127 197//127 186//127
f 59//89 58//89 73//89
f 2//34 1//34 16//34
f 57//57 32//57 71//57
f 129//128 115//128 128//128
f 29//49 4//49 43//49
f 200//92 199//92 214//92
f 186//93 172//93 185//93
f 72//129 58//129 71//129
f 169//25 144//25 183//25
f 1//41 200//41 15//41
f 4//96 3//96 18//96
f 171//97 170//97 185//97
f 86//98 85//98 100//98
f 30//42 29//42 44//42
f 113//66 88//66 127//66
f 142//10 141//10 156//10
f 141//17 116//17 155//17
