# Blender v2.70 (sub 0) OBJ File: 'BlockeryPaused.blend'
# www.blender.org
o Plane.010_Plane.020
v 5.500000 0.500000 -2.500000
v 9.500000 0.500000 -1.500000
v 6.500000 0.500000 -1.500000
v 6.500000 0.500000 -2.500000
v 9.500000 0.500000 -2.500000
v 6.500000 0.500000 2.500000
v 5.500000 0.500000 2.500000
v 5.500000 -0.500000 2.500000
v 6.500000 -0.500000 2.500000
v 9.500000 -0.500000 -2.500000
v 6.500000 -0.500000 -2.500000
v 6.500000 -0.500000 -1.500000
v 9.500000 0.500000 2.500000
v 9.500000 0.500000 1.500000
v 6.500000 0.500000 1.500000
v 9.500000 -0.500000 -1.500000
v 5.500000 -0.500000 -2.500000
v 9.500000 -0.500000 2.500000
v 9.500000 -0.500000 1.500000
v 6.500000 -0.500000 1.500000
v 9.500000 0.500000 0.500000
v 9.500000 0.500000 -0.500000
v 6.500000 0.500000 -0.500000
v 6.500000 0.500000 0.500000
v 6.500000 -0.500000 0.500000
v 6.500000 -0.500000 -0.500000
v 9.500000 -0.500000 -0.500000
v 9.500000 -0.500000 0.500000
vn 0.000000 -1.000000 0.000000
vn 0.000000 1.000000 0.000000
vn 1.000000 0.000000 0.000000
vn 0.000000 0.000000 -1.000000
vn -1.000000 0.000000 0.000000
vn 0.000000 0.000000 1.000000
s off
f 6//1 7//1 1//1
f 11//1 10//1 16//1
f 17//2 8//2 9//2
f 2//2 5//2 4//2
f 13//2 14//2 15//2
f 20//1 19//1 18//1
f 13//3 18//3 19//3
f 7//3 8//3 17//3
f 14//4 19//4 20//4
f 4//5 11//5 9//5
f 5//4 10//4 11//4
f 4//5 11//5 12//5
f 3//6 12//6 16//6
f 6//6 9//6 18//6
f 1//6 17//6 11//6
f 15//5 20//5 9//5
f 2//3 16//3 10//3
f 6//4 9//4 8//4
f 21//2 22//2 23//2
f 26//1 27//1 28//1
f 24//6 25//6 28//6
f 23//5 26//5 25//5
f 21//3 28//3 27//3
f 22//4 27//4 26//4
f 4//1 6//1 1//1
f 12//1 11//1 16//1
f 11//2 17//2 9//2
f 3//2 2//2 4//2
f 6//2 13//2 15//2
f 9//1 20//1 18//1
f 14//3 13//3 19//3
f 1//3 7//3 17//3
f 15//4 14//4 20//4
f 6//5 4//5 9//5
f 4//4 5//4 11//4
f 3//5 4//5 12//5
f 2//6 3//6 16//6
f 13//6 6//6 18//6
f 4//6 1//6 11//6
f 6//5 15//5 9//5
f 5//3 2//3 10//3
f 7//4 6//4 8//4
f 24//2 21//2 23//2
f 25//1 26//1 28//1
f 21//6 24//6 28//6
f 24//5 23//5 25//5
f 22//3 21//3 27//3
f 23//4 22//4 26//4
o Plane.009_Plane.019
v 11.500000 0.500000 -0.500000
v 13.500000 0.500000 -0.500000
v 13.500000 0.500000 0.500000
v 10.500000 0.500000 -2.500000
v 13.500000 0.500000 -1.500000
v 11.500000 0.500000 -1.500000
v 11.500000 0.500000 0.500000
v 11.500000 0.500000 -2.500000
v 11.500000 0.500000 2.500000
v 10.500000 0.500000 2.500000
v 14.500000 0.500000 2.500000
v 14.500000 0.500000 1.500000
v 13.500000 0.500000 1.500000
v 13.500000 0.500000 2.500000
v 10.500000 -0.500000 -2.500000
v 13.500000 -0.500000 0.500000
v 13.500000 0.500000 -2.500000
v 14.500000 0.500000 -2.500000
v 14.500000 0.500000 0.500000
v 13.500000 -0.500000 -0.500000
v 11.500000 -0.500000 -0.500000
v 12.500000 0.500000 0.500000
v 12.500000 0.500000 1.500000
v 13.500000 -0.500000 -1.500000
v 11.500000 -0.500000 -1.500000
v 11.500000 -0.500000 0.500000
v 11.500000 -0.500000 -2.500000
v 11.500000 -0.500000 2.500000
v 10.500000 -0.500000 2.500000
v 14.500000 -0.500000 2.500000
v 14.500000 -0.500000 1.500000
v 13.500000 -0.500000 1.500000
v 13.500000 -0.500000 2.500000
v 13.500000 -0.500000 -2.500000
v 14.500000 -0.500000 -2.500000
v 14.500000 -0.500000 0.500000
v 12.500000 -0.500000 0.500000
v 12.500000 -0.500000 1.500000
vn 0.000000 -1.000000 0.000000
vn 0.000000 1.000000 0.000000
vn 1.000000 0.000000 0.000000
vn 0.000000 0.000000 -1.000000
vn -1.000000 0.000000 0.000000
vn 0.000000 0.000000 1.000000
s off
f 55//7 62//7 52//7
f 60//7 59//7 58//7
f 49//7 48//7 44//7
f 31//8 30//8 29//8
f 39//8 40//8 41//8
f 33//8 45//8 36//8
f 37//7 38//7 32//7
f 47//7 31//7 45//7
f 41//8 31//8 50//8
f 43//8 57//8 56//8
f 62//8 44//8 64//8
f 65//7 44//7 60//7
f 39//9 58//9 59//9
f 45//10 62//10 55//10
f 40//10 59//10 60//10
f 36//11 55//11 56//11
f 35//12 54//12 44//12
f 37//10 56//10 57//10
f 31//9 44//9 48//9
f 45//12 62//12 63//12
f 29//11 49//11 54//11
f 30//10 48//10 49//10
f 46//11 63//11 64//11
f 47//10 64//10 44//10
f 36//11 55//11 53//11
f 31//9 44//9 62//9
f 38//9 57//9 43//9
f 50//11 65//11 66//11
f 51//12 66//12 60//12
f 41//9 60//9 44//9
f 42//12 61//12 58//12
f 33//9 52//9 62//9
f 31//10 44//10 65//10
f 41//11 60//11 61//11
f 34//12 53//12 52//12
f 32//12 43//12 55//12
f 53//7 55//7 52//7
f 61//7 60//7 58//7
f 54//7 49//7 44//7
f 35//8 31//8 29//8
f 42//8 39//8 41//8
f 34//8 33//8 36//8
f 36//7 37//7 32//7
f 46//7 47//7 45//7
f 51//8 41//8 50//8
f 55//8 43//8 56//8
f 63//8 62//8 64//8
f 66//7 65//7 60//7
f 40//9 39//9 59//9
f 36//10 45//10 55//10
f 41//10 40//10 60//10
f 37//11 36//11 56//11
f 31//12 35//12 44//12
f 38//10 37//10 57//10
f 30//9 31//9 48//9
f 46//12 45//12 63//12
f 35//11 29//11 54//11
f 29//10 30//10 49//10
f 47//11 46//11 64//11
f 31//10 47//10 44//10
f 34//11 36//11 53//11
f 45//9 31//9 62//9
f 32//9 38//9 43//9
f 51//11 50//11 66//11
f 41//12 51//12 60//12
f 31//9 41//9 44//9
f 39//12 42//12 58//12
f 45//9 33//9 62//9
f 50//10 31//10 65//10
f 42//11 41//11 61//11
f 33//12 34//12 52//12
f 36//12 32//12 55//12
o Plane.006_Plane.016
v 3.500000 -0.500000 0.500000
v 4.500000 0.500000 -0.500000
v 4.500000 -0.500000 0.500000
v 3.500000 0.500000 -0.500000
v 4.500000 -0.500000 -2.500000
v 3.500000 0.500000 -2.500000
v 4.500000 0.500000 -2.500000
v 4.500000 0.500000 0.500000
v 3.500000 0.500000 0.500000
v 1.500000 0.500000 0.500000
v 1.500000 0.500000 -0.500000
v 3.500000 0.500000 2.500000
v 4.500000 0.500000 2.500000
v 3.500000 -0.500000 -2.500000
v 3.500000 -0.500000 -0.500000
v 4.500000 -0.500000 -0.500000
v 1.500000 -0.500000 0.500000
v 1.500000 -0.500000 -0.500000
v 3.500000 -0.500000 2.500000
v 4.500000 -0.500000 2.500000
v 0.500000 0.500000 -2.500000
v 1.500000 0.500000 -2.500000
v 1.500000 -0.500000 -2.500000
v 0.500000 -0.500000 -2.500000
v 0.500000 0.500000 2.500000
v 1.500000 0.500000 2.500000
v 0.500000 -0.500000 2.500000
v 1.500000 -0.500000 2.500000
vn 0.000000 1.000000 0.000000
vn 0.000000 -1.000000 0.000000
vn 1.000000 0.000000 0.000000
vn -1.000000 0.000000 0.000000
vn 0.000000 0.000000 1.000000
vn 0.000000 0.000000 -1.000000
s off
f 83//13 67//13 81//13
f 78//13 79//13 74//13
f 69//14 86//14 85//14
f 70//14 75//14 76//14
f 70//13 68//13 73//13
f 71//14 82//14 81//14
f 68//15 82//15 71//15
f 72//16 80//16 81//16
f 77//17 84//17 81//17
f 75//16 67//16 85//16
f 78//17 85//17 86//17
f 74//18 69//18 67//18
f 73//18 71//18 80//18
f 70//17 81//17 82//17
f 75//18 67//18 83//18
f 76//15 83//15 84//15
f 79//15 86//15 69//15
f 70//16 81//16 67//16
f 89//14 94//14 93//14
f 91//13 92//13 88//13
f 91//17 93//17 94//17
f 87//16 90//16 93//16
f 92//15 94//15 89//15
f 88//18 89//18 90//18
f 84//13 83//13 81//13
f 75//13 78//13 74//13
f 67//14 69//14 85//14
f 77//14 70//14 76//14
f 72//13 70//13 73//13
f 80//14 71//14 81//14
f 73//15 68//15 71//15
f 70//16 72//16 81//16
f 70//17 77//17 81//17
f 78//16 75//16 85//16
f 79//17 78//17 86//17
f 75//18 74//18 67//18
f 72//18 73//18 80//18
f 68//17 70//17 82//17
f 76//18 75//18 83//18
f 77//15 76//15 84//15
f 74//15 79//15 69//15
f 75//16 70//16 67//16
f 90//14 89//14 93//14
f 87//13 91//13 88//13
f 92//17 91//17 94//17
f 91//16 87//16 93//16
f 88//15 92//15 89//15
f 87//18 88//18 90//18
o Plane.005_Plane.015
v -4.500000 0.500000 -2.500000
v -3.500000 0.500000 1.500000
v -3.500000 0.500000 2.500000
v -0.500000 0.500000 2.500000
v -0.500000 0.500000 1.500000
v -0.500000 0.500000 -1.500000
v -4.500000 0.500000 2.500000
v -0.500000 0.500000 -2.500000
v -3.500000 0.500000 -2.500000
v -3.500000 0.500000 -1.500000
v -4.500000 -0.500000 -2.500000
v -3.500000 -0.500000 1.500000
v -3.500000 -0.500000 2.500000
v -0.500000 -0.500000 2.500000
v -0.500000 -0.500000 1.500000
v -0.500000 -0.500000 -1.500000
v -4.500000 -0.500000 2.500000
v -0.500000 -0.500000 -2.500000
v -3.500000 -0.500000 -2.500000
v -3.500000 -0.500000 -1.500000
vn 0.000000 1.000000 0.000000
vn 0.000000 -1.000000 0.000000
vn 0.000000 0.000000 1.000000
vn 0.000000 0.000000 -1.000000
vn 1.000000 0.000000 0.000000
vn -1.000000 0.000000 0.000000
s off
f 105//19 111//19 107//19
f 99//20 98//20 97//20
f 104//20 103//20 102//20
f 112//19 113//19 114//19
f 107//19 108//19 109//19
f 97//20 101//20 95//20
f 95//21 105//21 113//21
f 103//21 113//21 112//21
f 97//22 107//22 111//22
f 104//23 114//23 113//23
f 96//21 106//21 109//21
f 103//24 113//24 107//24
f 101//23 111//23 105//23
f 102//24 112//24 110//24
f 97//23 107//23 106//23
f 100//22 110//22 114//22
f 98//22 108//22 107//22
f 99//24 109//24 108//24
f 113//19 105//19 107//19
f 96//20 99//20 97//20
f 100//20 104//20 102//20
f 110//19 112//19 114//19
f 106//19 107//19 109//19
f 103//20 97//20 95//20
f 103//21 95//21 113//21
f 102//21 103//21 112//21
f 101//22 97//22 111//22
f 103//23 104//23 113//23
f 99//21 96//21 109//21
f 97//24 103//24 107//24
f 95//23 101//23 105//23
f 100//24 102//24 110//24
f 96//23 97//23 106//23
f 104//22 100//22 114//22
f 97//22 98//22 107//22
f 98//24 99//24 108//24
o Plane.004_Plane.014
v -8.500000 0.500000 -2.500000
v -6.500000 0.500000 -2.500000
v -5.500000 0.500000 -2.500000
v -6.500000 0.500000 1.500000
v -5.500000 0.500000 2.500000
v -6.500000 0.500000 2.500000
v -9.500000 0.500000 2.500000
v -8.500000 0.500000 2.500000
v -8.500000 0.500000 1.500000
v -9.500000 0.500000 -2.500000
v -8.500000 0.500000 -1.500000
v -6.500000 0.500000 -1.500000
v -8.500000 -0.500000 -2.500000
v -6.500000 -0.500000 -2.500000
v -5.500000 -0.500000 -2.500000
v -6.500000 -0.500000 1.500000
v -5.500000 -0.500000 2.500000
v -6.500000 -0.500000 2.500000
v -9.500000 -0.500000 2.500000
v -8.500000 -0.500000 2.500000
v -8.500000 -0.500000 1.500000
v -9.500000 -0.500000 -2.500000
v -8.500000 -0.500000 -1.500000
v -6.500000 -0.500000 -1.500000
vn 0.000000 -1.000000 0.000000
vn 0.000000 1.000000 0.000000
vn 1.000000 0.000000 0.000000
vn 0.000000 0.000000 -1.000000
vn 0.000000 0.000000 1.000000
vn -1.000000 0.000000 0.000000
s off
f 119//25 120//25 116//25
f 122//25 121//25 124//25
f 136//26 133//26 134//26
f 128//26 132//26 131//26
f 122//25 123//25 118//25
f 125//25 115//25 116//25
f 130//26 135//26 134//26
f 128//26 127//26 137//26
f 121//27 133//27 136//27
f 126//28 138//28 137//28
f 123//29 135//29 130//29
f 118//30 130//30 132//30
f 116//29 128//29 129//29
f 120//27 132//27 128//27
f 125//27 137//27 127//27
f 119//28 131//28 132//28
f 116//30 128//30 138//30
f 117//30 129//30 131//30
f 115//29 127//29 128//29
f 122//28 134//28 133//28
f 115//30 127//30 134//30
f 120//28 132//28 134//28
f 124//29 136//29 127//29
f 122//27 134//27 135//27
f 117//25 119//25 116//25
f 115//25 122//25 124//25
f 127//26 136//26 134//26
f 129//26 128//26 131//26
f 120//25 122//25 118//25
f 126//25 125//25 116//25
f 132//26 130//26 134//26
f 138//26 128//26 137//26
f 124//27 121//27 136//27
f 125//28 126//28 137//28
f 118//29 123//29 130//29
f 120//30 118//30 132//30
f 117//29 116//29 129//29
f 116//27 120//27 128//27
f 115//27 125//27 127//27
f 120//28 119//28 132//28
f 126//30 116//30 138//30
f 119//30 117//30 131//30
f 116//29 115//29 128//29
f 121//28 122//28 133//28
f 122//30 115//30 134//30
f 122//28 120//28 134//28
f 115//29 124//29 127//29
f 123//27 122//27 135//27
o Plane.002_Plane.013
v -13.500000 0.500000 -2.500000
v -14.500000 0.500000 -2.500000
v -14.500000 0.500000 2.500000
v -13.500000 0.500000 2.500000
v -13.500000 0.500000 1.500000
v -10.500000 0.500000 1.500000
v -10.500000 0.500000 2.500000
v -13.500000 -0.500000 -2.500000
v -14.500000 -0.500000 -2.500000
v -14.500000 -0.500000 2.500000
v -13.500000 -0.500000 2.500000
v -13.500000 -0.500000 1.500000
v -10.500000 -0.500000 1.500000
v -10.500000 -0.500000 2.500000
vn 0.000000 -1.000000 0.000000
vn 0.000000 1.000000 0.000000
vn 0.000000 0.000000 1.000000
vn 1.000000 0.000000 0.000000
vn -1.000000 0.000000 0.000000
vn 0.000000 0.000000 -1.000000
s off
f 142//31 141//31 140//31
f 147//32 148//32 149//32
f 145//32 144//32 143//32
f 150//31 151//31 152//31
f 140//33 147//33 146//33
f 145//34 152//34 151//34
f 139//35 146//35 149//35
f 141//34 148//34 147//34
f 144//36 151//36 150//36
f 143//35 150//35 149//35
f 142//33 149//33 152//33
f 142//36 149//36 148//36
f 139//31 142//31 140//31
f 146//32 147//32 149//32
f 142//32 145//32 143//32
f 149//31 150//31 152//31
f 139//33 140//33 146//33
f 144//34 145//34 151//34
f 142//35 139//35 149//35
f 140//34 141//34 147//34
f 143//36 144//36 150//36
f 142//35 143//35 149//35
f 145//33 142//33 152//33
f 141//36 142//36 148//36
o Plane.001_Plane.012
v -18.500000 0.500000 -0.500000
v -18.500000 0.500000 0.500000
v -16.500000 0.500000 0.500000
v -16.500000 0.500000 -0.500000
v -18.500000 -0.500000 -0.500000
v -18.500000 -0.500000 0.500000
v -16.500000 -0.500000 0.500000
v -16.500000 -0.500000 -0.500000
v -19.500000 0.500000 2.500000
v -18.500000 0.500000 -1.500000
v -19.500000 0.500000 -1.500000
v -19.500000 0.500000 -2.500000
v -16.500000 0.500000 -2.500000
v -16.500000 0.500000 1.500000
v -15.500000 0.500000 -1.500000
v -16.500000 0.500000 -1.500000
v -15.500000 0.500000 1.500000
v -15.500000 0.500000 2.500000
v -18.500000 0.500000 2.500000
v -18.500000 0.500000 1.500000
v -19.500000 -0.500000 2.500000
v -18.500000 -0.500000 -1.500000
v -19.500000 -0.500000 -1.500000
v -19.500000 -0.500000 -2.500000
v -16.500000 -0.500000 -2.500000
v -16.500000 -0.500000 1.500000
v -15.500000 -0.500000 -1.500000
v -16.500000 -0.500000 -1.500000
v -15.500000 -0.500000 1.500000
v -15.500000 -0.500000 2.500000
v -18.500000 -0.500000 2.500000
v -18.500000 -0.500000 1.500000
vn 0.000000 -1.000000 0.000000
vn 0.000000 1.000000 0.000000
vn 0.000000 0.000000 1.000000
vn 0.000000 0.000000 -1.000000
vn -1.000000 0.000000 0.000000
vn 1.000000 0.000000 0.000000
s off
f 154//37 153//37 156//37
f 160//38 157//38 158//38
f 153//39 157//39 160//39
f 155//40 159//40 158//40
f 156//41 160//41 159//41
f 154//42 158//42 157//42
f 181//38 184//38 183//38
f 171//37 172//37 169//37
f 171//37 161//37 163//37
f 163//37 164//37 165//37
f 169//37 166//37 168//37
f 175//38 173//38 183//38
f 177//38 176//38 175//38
f 180//38 178//38 181//38
f 171//40 183//40 173//40
f 162//41 174//41 183//41
f 163//42 175//42 176//42
f 165//41 177//41 180//41
f 169//40 181//40 178//40
f 168//40 180//40 175//40
f 161//42 173//42 175//42
f 163//39 175//39 174//39
f 164//39 176//39 177//39
f 166//42 178//42 180//42
f 169//41 181//41 182//41
f 168//39 180//39 179//39
f 170//40 182//40 183//40
f 172//39 184//39 181//39
f 171//42 183//42 184//42
f 167//41 179//41 181//41
f 155//37 154//37 156//37
f 159//38 160//38 158//38
f 156//39 153//39 160//39
f 154//40 155//40 158//40
f 155//41 156//41 159//41
f 153//42 154//42 157//42
f 182//38 181//38 183//38
f 170//37 171//37 169//37
f 162//37 171//37 163//37
f 168//37 163//37 165//37
f 167//37 169//37 168//37
f 174//38 175//38 183//38
f 180//38 177//38 175//38
f 179//38 180//38 181//38
f 161//40 171//40 173//40
f 171//41 162//41 183//41
f 164//42 163//42 176//42
f 168//41 165//41 180//41
f 166//40 169//40 178//40
f 163//40 168//40 175//40
f 163//42 161//42 175//42
f 162//39 163//39 174//39
f 165//39 164//39 177//39
f 168//42 166//42 180//42
f 170//41 169//41 182//41
f 167//39 168//39 179//39
f 171//40 170//40 183//40
f 169//39 172//39 181//39
f 172//42 171//42 184//42
f 169//41 167//41 181//41
o Plane.003
v 16.500000 0.500000 -0.500000
v 18.500000 0.500000 -0.500000
v 18.500000 0.500000 0.500000
v 15.500000 0.500000 -2.500000
v 17.500000 0.500000 0.500000
v 18.500000 0.500000 2.500000
v 16.500000 0.500000 -2.500000
v 17.500000 0.500000 2.500000
v 16.500000 0.500000 0.500000
v 15.500000 0.500000 0.500000
v 19.500000 0.500000 0.500000
v 19.500000 0.500000 -2.500000
v 18.500000 0.500000 -2.500000
v 16.500000 -0.500000 -0.500000
v 18.500000 -0.500000 -0.500000
v 18.500000 -0.500000 0.500000
v 15.500000 -0.500000 -2.500000
v 17.500000 -0.500000 0.500000
v 18.500000 -0.500000 2.500000
v 16.500000 -0.500000 -2.500000
v 17.500000 -0.500000 2.500000
v 16.500000 -0.500000 0.500000
v 15.500000 -0.500000 0.500000
v 19.500000 -0.500000 0.500000
v 19.500000 -0.500000 -2.500000
v 18.500000 -0.500000 -2.500000
vn 0.000000 1.000000 0.000000
vn 0.000000 -1.000000 0.000000
vn -1.000000 0.000000 0.000000
vn 1.000000 0.000000 0.000000
vn 0.000000 0.000000 1.000000
vn 0.000000 0.000000 -1.000000
s off
f 201//43 207//43 206//43
f 193//44 194//44 188//44
f 190//44 192//44 189//44
f 187//43 186//43 185//43
f 195//44 187//44 197//44
f 202//43 205//43 203//43
f 198//44 199//44 200//44
f 210//43 200//43 208//43
f 196//45 209//45 208//45
f 187//46 200//46 199//46
f 185//45 198//45 206//45
f 197//47 210//47 209//47
f 193//47 206//47 200//47
f 190//48 203//48 205//48
f 189//47 202//47 200//47
f 187//45 200//45 203//45
f 187//46 200//46 210//46
f 193//48 206//48 207//48
f 195//48 208//48 200//48
f 188//47 201//47 204//47
f 186//48 199//48 198//48
f 192//46 205//46 202//46
f 194//46 207//46 201//46
f 191//45 204//45 206//45
f 204//43 201//43 206//43
f 191//44 193//44 188//44
f 187//44 190//44 189//44
f 193//43 187//43 185//43
f 196//44 195//44 197//44
f 200//43 202//43 203//43
f 206//44 198//44 200//44
f 209//43 210//43 208//43
f 195//45 196//45 208//45
f 186//46 187//46 199//46
f 193//45 185//45 206//45
f 196//47 197//47 209//47
f 187//47 193//47 200//47
f 192//48 190//48 205//48
f 187//47 189//47 200//47
f 190//45 187//45 203//45
f 197//46 187//46 210//46
f 194//48 193//48 207//48
f 187//48 195//48 200//48
f 191//47 188//47 204//47
f 185//48 186//48 198//48
f 189//46 192//46 202//46
f 188//46 194//46 201//46
f 193//45 191//45 206//45
