# Blender v2.70 (sub 0) OBJ File: 'BlockeryLogo.blend'
# www.blender.org
o Plane.006
v -4.500000 -0.500000 -2.500000
v -3.500000 -0.500000 1.500000
v -3.500000 -0.500000 2.500000
v -0.500000 -0.500000 2.500000
v -0.500000 -0.500000 1.500000
v -0.500000 -0.500000 -1.500000
v -4.500000 -0.500000 2.500000
v -0.500000 -0.500000 -2.500000
v -3.500000 -0.500000 -2.500000
v -3.500000 -0.500000 -1.500000
v -4.500000 0.500000 -2.500000
v -3.500000 0.500000 1.500000
v -3.500000 0.500000 2.500000
v -0.500000 0.500000 2.500000
v -0.500000 0.500000 1.500000
v -0.500000 0.500000 -1.500000
v -4.500000 0.500000 2.500000
v -0.500000 0.500000 -2.500000
v -3.500000 0.500000 -2.500000
v -3.500000 0.500000 -1.500000
vn 0.000000 1.000000 0.000000
vn 0.000000 -1.000000 0.000000
vn 0.000000 0.000000 -1.000000
vn 0.000000 0.000000 1.000000
vn 1.000000 0.000000 0.000000
vn -1.000000 0.000000 0.000000
s off
f 11//1 17//1 13//1
f 5//2 4//2 3//2
f 10//2 9//2 8//2
f 18//1 19//1 20//1
f 13//1 14//1 15//1
f 3//2 7//2 1//2
f 1//3 11//3 19//3
f 9//3 19//3 18//3
f 3//4 13//4 17//4
f 2//3 12//3 15//3
f 9//5 19//5 13//5
f 7//6 17//6 11//6
f 8//5 18//5 16//5
f 6//4 16//4 20//4
f 4//4 14//4 13//4
f 5//5 15//5 14//5
f 19//1 11//1 13//1
f 2//2 5//2 3//2
f 6//2 10//2 8//2
f 16//1 18//1 20//1
f 12//1 13//1 15//1
f 9//2 3//2 1//2
f 9//3 1//3 19//3
f 8//3 9//3 18//3
f 7//4 3//4 17//4
f 5//3 2//3 15//3
f 3//5 9//5 13//5
f 1//6 7//6 11//6
f 6//5 8//5 16//5
f 10//4 6//4 20//4
f 3//4 4//4 13//4
f 4//5 5//5 14//5
