# Blender v2.70 (sub 0) OBJ File: 'BlockeryLogo.blend'
# www.blender.org
o Plane.000
v 9.500000 -0.500000 0.500000
v 9.500000 -0.500000 -0.500000
v 6.500000 0.500000 2.500000
v 6.500000 0.500000 1.500000
v 6.500000 -0.500000 1.500000
v 6.500000 -0.500000 2.500000
v 9.500000 0.500000 -0.500000
v 9.500000 0.500000 0.500000
v 5.500000 -0.500000 -2.500000
v 6.500000 -0.500000 -1.500000
v 6.500000 -0.500000 -2.500000
v 6.500000 -0.500000 -2.500000
v 6.500000 0.500000 -2.500000
v 6.500000 -0.500000 2.500000
v 5.500000 -0.500000 2.500000
v 5.500000 0.500000 2.500000
v 6.500000 0.500000 2.500000
v 6.500000 0.500000 -1.500000
v 6.500000 0.500000 -2.500000
v 9.500000 0.500000 -1.500000
v 9.500000 0.500000 -2.500000
v 9.500000 -0.500000 -2.500000
v 9.500000 -0.500000 -1.500000
v 6.500000 0.500000 0.500000
v 5.500000 0.500000 -2.500000
v 6.500000 0.500000 -0.500000
v 6.500000 -0.500000 -0.500000
v 6.500000 -0.500000 0.500000
v 9.500000 0.500000 2.500000
v 9.500000 0.500000 1.500000
v 9.500000 -0.500000 1.500000
v 9.500000 -0.500000 2.500000
vn 0.000000 0.000000 1.000000
vn 0.000000 0.000000 -1.000000
vn 1.000000 0.000000 0.000000
vn 0.000000 -1.000000 0.000000
vn 0.000000 1.000000 0.000000
vn -1.000000 0.000000 0.000000
s off
f 29//1 3//1 6//1
f 31//2 5//2 4//2
f 30//3 29//3 32//3
f 7//3 8//3 1//3
f 14//4 15//4 9//4
f 22//2 11//2 13//2
f 25//5 16//5 17//5
f 20//1 18//1 10//1
f 21//5 13//5 18//5
f 23//4 10//4 11//4
f 21//3 20//3 23//3
f 15//6 16//6 25//6
f 1//4 28//4 27//4
f 12//3 19//3 17//3
f 7//5 26//5 24//5
f 32//4 6//4 5//4
f 8//1 24//1 28//1
f 2//2 27//2 26//2
f 9//2 25//2 19//2
f 30//5 4//5 3//5
f 14//1 17//1 16//1
f 32//1 29//1 6//1
f 30//2 31//2 4//2
f 31//3 30//3 32//3
f 2//3 7//3 1//3
f 12//4 14//4 9//4
f 21//2 22//2 13//2
f 19//5 25//5 17//5
f 23//1 20//1 10//1
f 20//5 21//5 18//5
f 22//4 23//4 11//4
f 22//3 21//3 23//3
f 9//6 15//6 25//6
f 2//4 1//4 27//4
f 14//3 12//3 17//3
f 8//5 7//5 24//5
f 31//4 32//4 5//4
f 1//1 8//1 28//1
f 7//2 2//2 26//2
f 12//2 9//2 19//2
f 29//5 30//5 3//5
f 15//1 14//1 16//1
