# Blender v2.70 (sub 0) OBJ File: 'BlockeryGameOver.blend'
# www.blender.org
o Plane.001
v -14.000000 -0.500000 -2.500000
v -14.000001 0.500000 -1.500000
v -13.000000 -0.500000 -2.500000
v -14.000001 -0.500000 -1.500000
v 18.000000 0.500000 2.500000
v 18.000000 -0.500000 2.500000
v -6.000001 -0.500000 -1.500000
v -6.000001 0.500000 -2.500000
v -6.000001 0.500000 -1.500000
v -7.000001 0.500000 2.500000
v -20.000000 -0.500000 0.500000
v -18.000000 -0.500000 0.500000
v -18.000000 0.500000 0.500000
v -18.000000 -0.500000 -2.500000
v -20.000000 0.500000 -0.500000
v -18.000000 -0.500000 -0.500000
v -19.000000 0.500000 2.500000
v -18.000000 0.500000 2.500000
v -19.000000 -0.500000 1.500000
v -19.000000 -0.500000 0.500000
v -18.000000 -0.500000 -1.500000
v -19.000000 -0.500000 2.500000
v -18.000000 -0.500000 2.500000
v -14.000000 0.500000 -2.500000
v -13.000000 0.500000 -2.500000
v -14.000000 0.500000 2.500000
v -13.000000 0.500000 2.500000
v -13.000000 -0.500000 2.500000
v 19.000000 -0.500000 -2.500000
v 18.000000 -0.500000 -2.500000
v 18.000000 0.500000 -2.500000
v 20.000000 -0.500000 0.500000
v 20.000000 -0.500000 1.500000
v 20.000000 0.500000 1.500000
v 19.000000 -0.500000 2.500000
v 19.000000 0.500000 2.500000
v 17.000000 -0.500000 -1.500000
v 17.000000 -0.500000 -2.500000
v 17.000000 0.500000 -2.500000
v 17.000000 0.500000 -1.500000
v 17.000000 0.500000 0.500000
v 17.000000 0.500000 -0.500000
v 17.000000 -0.500000 -0.500000
v 17.000000 -0.500000 0.500000
v 17.000000 -0.500000 2.500000
v 17.000000 -0.500000 1.500000
v 17.000000 0.500000 1.500000
v 17.000000 0.500000 2.500000
v 13.999999 0.500000 2.500000
v 13.999999 0.500000 1.500000
v 13.999999 -0.500000 1.500000
v 13.999999 -0.500000 2.500000
v 13.999999 -0.500000 0.500000
v 9.000000 -0.500000 2.500000
v 9.000000 0.500000 2.500000
v 11.000000 0.500000 2.499999
v 11.000000 -0.500000 2.499999
v 9.000000 -0.500000 0.499999
v 11.000000 0.500000 -2.500001
v 11.000000 -0.500000 -2.500001
v 13.999999 -0.500000 -0.500000
v 13.999999 0.500000 -0.500000
v 13.999999 0.500000 0.500000
v 12.000000 -0.500000 0.499999
v 12.000000 0.500000 0.499999
v 11.000000 0.500000 0.500000
v 11.000000 -0.500000 0.500000
v 12.000000 -0.500000 -2.500001
v 12.000000 0.500000 -2.500001
v 2.999999 0.500000 -1.500000
v 3.999999 0.500000 -1.500000
v 2.999999 -0.500000 -1.500000
v 3.999999 -0.500000 -1.500000
v 3.999999 -0.500000 2.500000
v 2.999999 -0.500000 2.500000
v 3.999999 0.500000 2.500000
v 2.999999 0.500000 2.500000
v 5.999999 0.500000 1.500000
v 6.999999 0.500000 1.500000
v 5.999999 -0.500000 1.500000
v 6.999999 -0.500000 1.500000
v 12.999999 0.500000 -2.500000
v 12.999999 -0.500000 -2.500000
v 13.999999 -0.500000 -2.500000
v 9.000000 0.500000 -2.500001
v 9.000000 -0.500000 -2.500001
v 8.000000 -0.500000 0.500000
v 8.000000 0.500000 0.500000
v 9.000000 0.500000 0.499999
v 8.000000 -0.500000 -2.500001
v 8.000000 0.500000 -2.500001
v 6.999999 -0.500000 -2.500000
v 5.999999 -0.500000 -2.500000
v 6.999999 0.500000 -2.500000
v 5.999999 0.500000 -2.500000
v -7.000001 -0.500000 2.500000
v -6.000001 -0.500000 -2.500000
v -7.000001 -0.500000 -2.500000
v -7.000001 0.500000 -2.500000
v -6.000001 0.500000 0.500000
v -6.000001 0.500000 -0.500000
v -6.000001 -0.500000 -0.500000
v -6.000001 -0.500000 0.500000
v -6.000001 -0.500000 2.500000
v -6.000001 -0.500000 1.500000
v -6.000001 0.500000 1.500000
v -6.000001 0.500000 2.500000
v -3.000001 0.500000 2.500000
v -3.000001 0.500000 1.500000
v -3.000001 -0.500000 1.500000
v -3.000001 -0.500000 2.500000
v -3.000001 -0.500000 0.500000
v -3.000001 -0.500000 -0.500000
v -3.000001 0.500000 -0.500000
v -3.000001 0.500000 0.500000
v -8.000001 0.500000 0.500000
v -12.000001 -0.500000 0.500000
v -8.000001 -0.500000 0.500000
v -8.000001 -0.500000 -1.500000
v -8.000001 0.500000 -1.500000
v -12.000001 0.500000 -1.500000
v -9.000001 0.500000 -1.500000
v -9.000001 -0.500000 -1.500000
v -8.000001 -0.500000 -2.500000
v -9.000001 -0.500000 -2.500000
v -8.000001 0.500000 -2.500000
v -9.000001 0.500000 -2.500000
v -14.000000 -0.500000 2.500000
v -17.000000 0.500000 -2.500000
v -17.000000 -0.500000 2.500000
v -21.000000 -0.500000 1.500000
v -22.000000 -0.500000 -2.500000
v -19.000000 0.500000 1.500000
v -20.000000 -0.500000 -0.500000
v -21.000000 -0.500000 -2.500000
v -18.000000 0.500000 -2.500000
v -18.000000 0.500000 -1.500000
v -21.000000 0.500000 -1.500000
v -21.000000 0.500000 -2.500000
v -20.000000 0.500000 0.500000
v -21.000000 -0.500000 -1.500000
v -16.000000 -0.500000 2.500000
v -16.000000 0.500000 2.500000
v -17.000000 0.500000 2.500000
v -3.000001 0.500000 -1.500000
v -3.000001 0.500000 -2.500000
v -3.000001 -0.500000 -2.500000
v -3.000001 -0.500000 -1.500000
v -11.000001 -0.500000 -1.500000
v -12.000001 -0.500000 -1.500000
v -11.000001 0.500000 -1.500000
v 12.999999 -0.500000 2.500000
v 12.999999 0.500000 2.500000
v 13.999999 0.500000 -1.500000
v 13.999999 0.500000 -2.500000
v 13.999999 -0.500000 -1.500000
v 20.000000 0.500000 0.500000
v 21.000000 -0.500000 1.500000
v 21.000000 0.500000 0.500000
v 21.000000 0.500000 1.500000
v 21.000000 -0.500000 0.500000
v 21.000000 -0.500000 -0.500000
v 21.000000 0.500000 -0.500000
v 19.000000 0.500000 -0.500000
v 19.000000 0.500000 0.500000
v 19.000000 -0.500000 0.500000
v 19.000000 -0.500000 -0.500000
v 22.000000 -0.500000 0.500000
v 22.000000 0.500000 0.500000
v 22.000000 -0.500000 -1.500000
v 21.000000 0.500000 -1.500000
v 22.000000 0.500000 -1.500000
v 21.000000 -0.500000 -1.500000
v 19.000000 -0.500000 -1.500000
v 19.000000 0.500000 -2.500000
v 19.000000 0.500000 -1.500000
v 22.000000 0.500000 -2.500000
v 22.000000 -0.500000 -2.500000
v -18.000000 0.500000 -0.500000
v -22.000000 0.500000 1.500000
v -22.000000 -0.500000 1.500000
v -19.000000 0.500000 0.500000
v -22.000000 0.500000 -2.500000
v -22.000000 0.500000 2.500000
v -22.000000 -0.500000 2.500000
v -21.000000 0.500000 1.500000
v -12.000001 0.500000 -2.500000
v -11.000001 0.500000 -2.500000
v -12.000001 -0.500000 -2.500000
v -11.000001 -0.500000 -2.500000
v -16.000000 0.500000 -2.500000
v -16.000000 -0.500000 -2.500000
v -17.000000 -0.500000 -2.500000
v -14.000000 0.500000 -0.500000
v -14.000000 0.500000 0.500000
v -14.000000 -0.500000 -0.500000
v -14.000000 -0.500000 0.500000
v -16.000000 0.500000 -0.500000
v -16.000000 0.500000 0.500000
v -16.000000 -0.500000 -0.500000
v -16.000000 -0.500000 0.500000
v -12.000001 0.500000 0.500000
v -11.000001 0.500000 0.500000
v -11.000001 -0.500000 0.500000
v -12.000001 0.500000 2.500000
v -11.000001 0.500000 2.500000
v -12.000001 -0.500000 2.500000
v -11.000001 -0.500000 2.500000
v -9.000001 0.500000 0.500000
v -9.000001 -0.500000 0.500000
v -9.000001 0.500000 2.500000
v -8.000001 0.500000 2.500000
v -9.000001 -0.500000 2.500000
v -8.000001 -0.500000 2.500000
v 7.000000 0.500000 2.500000
v 7.000000 -0.500000 2.500000
v 4.000000 -0.500000 1.500000
v 4.000000 0.500000 1.500000
v 6.000000 0.500000 -1.500000
v 6.000000 -0.500000 -1.500000
v 3.000000 -0.500000 -2.500000
v 3.000000 0.500000 -2.500000
v 21.000000 -0.500000 2.500000
v 21.000000 0.500000 2.500000
v 22.000000 -0.500000 2.500000
v 22.000000 0.500000 1.500000
v 22.000000 0.500000 2.500000
v 22.000000 -0.500000 1.500000
v -16.000000 0.500000 -1.500000
v -16.000000 -0.500000 -1.500000
vn -1.000000 0.000000 0.000000
vn 1.000000 0.000000 0.000000
vn 0.000000 0.000000 -1.000000
vn 0.000000 -1.000000 0.000000
vn 0.000000 1.000000 0.000000
vn 0.000000 0.000000 1.000000
vn 0.000001 0.000000 1.000000
vn 1.000000 0.000000 -0.000001
s off
f 132//1 181//1 180//1
f 21//2 14//2 136//2
f 181//3 180//3 133//3
f 135//4 131//4 181//4
f 98//1 96//1 10//1
f 136//5 139//5 138//5
f 21//4 141//4 135//4
f 109//5 106//5 107//5
f 110//3 105//3 106//3
f 108//6 107//6 104//6
f 111//4 104//4 105//4
f 112//4 103//4 102//4
f 115//6 100//6 103//6
f 113//3 102//3 101//3
f 114//5 101//5 100//5
f 58//2 86//2 85//2
f 87//4 90//4 86//4
f 139//3 135//3 132//3
f 14//3 135//3 139//3
f 89//7 88//7 87//7
f 26//6 128//6 28//6
f 66//3 67//3 58//3
f 55//1 89//1 58//1
f 57//2 67//2 66//2
f 56//5 66//5 89//5
f 54//4 58//4 67//4
f 111//2 110//2 109//2
f 112//2 113//2 114//2
f 30//1 6//1 5//1
f 5//6 6//6 35//6
f 55//6 54//6 57//6
f 148//6 145//6 9//6
f 120//2 116//2 118//2
f 29//4 35//4 6//4
f 84//4 52//4 152//4
f 39//3 38//3 84//3
f 66//7 67//7 64//7
f 145//5 146//5 8//5
f 38//4 37//4 156//4
f 84//3 83//3 82//3
f 153//6 152//6 52//6
f 148//2 147//2 146//2
f 155//2 49//2 52//2
f 82//5 153//5 49//5
f 69//3 68//3 60//3
f 37//2 38//2 39//2
f 77//6 75//6 74//6
f 66//1 59//1 60//1
f 125//1 123//1 122//1
f 64//2 68//2 69//2
f 71//2 76//2 74//2
f 40//5 39//5 155//5
f 37//6 40//6 154//6
f 66//5 65//5 69//5
f 72//1 75//1 77//1
f 44//2 43//2 42//2
f 67//4 60//4 68//4
f 45//2 46//2 47//2
f 124//3 125//3 127//3
f 89//5 85//5 91//5
f 188//2 151//2 149//2
f 70//5 77//5 76//5
f 42//5 62//5 63//5
f 43//3 61//3 62//3
f 41//6 63//6 53//6
f 73//4 74//4 75//4
f 34//6 33//6 158//6
f 44//4 53//4 61//4
f 33//4 32//4 161//4
f 88//1 91//1 90//1
f 32//1 33//1 34//1
f 92//4 81//4 80//4
f 159//5 157//5 34//5
f 190//4 149//4 150//4
f 32//3 157//3 159//3
f 45//4 52//4 51//4
f 167//3 164//3 163//3
f 95//5 78//5 79//5
f 93//1 80//1 78//1
f 167//1 166//1 165//1
f 94//2 79//2 81//2
f 85//3 86//3 90//3
f 169//2 168//2 170//2
f 48//6 49//6 52//6
f 46//3 51//3 50//3
f 47//5 50//5 49//5
f 83//1 152//1 153//1
f 92//3 93//3 95//3
f 17//5 18//5 13//5
f 13//2 12//2 16//2
f 11//6 12//6 13//6
f 134//4 16//4 12//4
f 185//4 181//4 19//4
f 140//5 13//5 179//5
f 15//3 179//3 16//3
f 139//2 186//2 131//2
f 18//2 23//2 12//2
f 134//1 11//1 140//1
f 23//4 22//4 20//4
f 181//1 185//1 184//1
f 137//6 138//6 141//6
f 184//6 185//6 22//6
f 20//1 22//1 17//1
f 180//5 184//5 17//5
f 22//6 23//6 18//6
f 183//5 180//5 186//5
f 144//6 130//6 142//6
f 190//3 189//3 187//3
f 192//3 193//3 129//3
f 130//4 193//4 192//4
f 197//4 201//4 200//4
f 194//5 198//5 199//5
f 196//3 200//3 198//3
f 195//6 199//6 201//6
f 3//2 25//2 27//2
f 129//1 193//1 130//1
f 1//4 3//4 28//4
f 143//5 191//5 129//5
f 192//2 191//2 143//2
f 205//6 207//6 208//6
f 202//5 205//5 206//5
f 203//2 206//2 208//2
f 211//6 213//6 214//6
f 210//1 213//1 211//1
f 99//5 10//5 107//5
f 8//2 107//2 104//2
f 10//6 96//6 104//6
f 97//3 98//3 99//3
f 147//4 148//4 7//4
f 119//4 118//4 117//4
f 121//5 202//5 116//5
f 150//1 117//1 202//1
f 202//6 117//6 118//6
f 119//3 150//3 121//3
f 146//3 147//3 97//3
f 124//4 119//4 123//4
f 127//5 122//5 120//5
f 126//2 120//2 119//2
f 189//1 150//1 121//1
f 187//5 121//5 151//5
f 97//4 104//4 96//4
f 204//4 208//4 207//4
f 117//1 207//1 205//1
f 118//4 214//4 213//4
f 209//5 211//5 212//5
f 116//2 212//2 214//2
f 216//8 81//8 79//8
f 215//6 76//6 74//6
f 81//3 217//3 218//3
f 215//5 79//5 218//5
f 216//4 74//4 217//4
f 222//1 221//1 72//1
f 219//6 70//6 72//6
f 93//3 221//3 222//3
f 219//5 95//5 222//5
f 220//4 72//4 221//4
f 158//2 161//2 159//2
f 224//6 223//6 225//6
f 225//2 228//2 226//2
f 31//5 5//5 36//5
f 29//3 30//3 31//3
f 164//5 165//5 159//5
f 166//4 167//4 162//4
f 165//6 166//6 161//6
f 168//4 161//4 173//4
f 161//6 168//6 169//6
f 159//5 169//5 172//5
f 161//1 159//1 171//1
f 170//6 172//6 176//6
f 172//5 177//5 175//5
f 170//2 178//2 177//2
f 178//4 170//4 174//4
f 177//3 178//3 29//3
f 223//4 158//4 228//4
f 158//1 223//1 224//1
f 160//5 224//5 227//5
f 158//3 160//3 226//3
f 1//4 4//4 230//4
f 24//5 191//5 229//5
f 3//3 1//3 24//3
f 25//5 24//5 26//5
f 24//1 1//1 128//1
f 1//3 192//3 191//3
f 2//6 229//6 230//6
f 183//1 132//1 180//1
f 137//2 21//2 136//2
f 19//3 181//3 133//3
f 132//4 135//4 181//4
f 99//1 98//1 10//1
f 137//5 136//5 138//5
f 14//4 21//4 135//4
f 108//5 109//5 107//5
f 109//3 110//3 106//3
f 111//6 108//6 104//6
f 110//4 111//4 105//4
f 113//4 112//4 102//4
f 112//6 115//6 103//6
f 114//3 113//3 101//3
f 115//5 114//5 100//5
f 89//2 58//2 85//2
f 58//4 87//4 86//4
f 183//3 139//3 132//3
f 136//3 14//3 139//3
f 58//7 89//7 87//7
f 27//6 26//6 28//6
f 89//3 66//3 58//3
f 54//1 55//1 58//1
f 56//2 57//2 66//2
f 55//5 56//5 89//5
f 57//4 54//4 67//4
f 108//2 111//2 109//2
f 115//2 112//2 114//2
f 31//1 30//1 5//1
f 36//6 5//6 35//6
f 56//6 55//6 57//6
f 7//6 148//6 9//6
f 119//2 120//2 118//2
f 30//4 29//4 6//4
f 83//4 84//4 152//4
f 155//3 39//3 84//3
f 65//7 66//7 64//7
f 9//5 145//5 8//5
f 84//4 38//4 156//4
f 155//3 84//3 82//3
f 49//6 153//6 52//6
f 145//2 148//2 146//2
f 84//2 155//2 52//2
f 155//5 82//5 49//5
f 59//3 69//3 60//3
f 40//2 37//2 39//2
f 76//6 77//6 74//6
f 67//1 66//1 60//1
f 127//1 125//1 122//1
f 65//2 64//2 69//2
f 73//2 71//2 74//2
f 154//5 40//5 155//5
f 156//6 37//6 154//6
f 59//5 66//5 69//5
f 70//1 72//1 77//1
f 41//2 44//2 42//2
f 64//4 67//4 68//4
f 48//2 45//2 47//2
f 126//3 124//3 127//3
f 88//5 89//5 91//5
f 190//2 188//2 149//2
f 71//5 70//5 76//5
f 41//5 42//5 63//5
f 42//3 43//3 62//3
f 44//6 41//6 53//6
f 72//4 73//4 75//4
f 160//6 34//6 158//6
f 43//4 44//4 61//4
f 158//4 33//4 161//4
f 87//1 88//1 90//1
f 157//1 32//1 34//1
f 93//4 92//4 80//4
f 160//5 159//5 34//5
f 189//4 190//4 150//4
f 161//3 32//3 159//3
f 46//4 45//4 51//4
f 162//3 167//3 163//3
f 94//5 95//5 79//5
f 95//1 93//1 78//1
f 164//1 167//1 165//1
f 92//2 94//2 81//2
f 91//3 85//3 90//3
f 172//2 169//2 170//2
f 45//6 48//6 52//6
f 47//3 46//3 50//3
f 48//5 47//5 49//5
f 82//1 83//1 153//1
f 94//3 92//3 95//3
f 182//5 17//5 13//5
f 179//2 13//2 16//2
f 140//6 11//6 13//6
f 11//4 134//4 12//4
f 22//4 185//4 19//4
f 15//5 140//5 179//5
f 134//3 15//3 16//3
f 135//2 139//2 131//2
f 13//2 18//2 12//2
f 15//1 134//1 140//1
f 12//4 23//4 20//4
f 180//1 181//1 184//1
f 21//6 137//6 141//6
f 17//6 184//6 22//6
f 182//1 20//1 17//1
f 133//5 180//5 17//5
f 17//6 22//6 18//6
f 139//5 183//5 186//5
f 143//6 144//6 142//6
f 188//3 190//3 187//3
f 191//3 192//3 129//3
f 142//4 130//4 192//4
f 196//4 197//4 200//4
f 195//5 194//5 199//5
f 194//3 196//3 198//3
f 197//6 195//6 201//6
f 28//2 3//2 27//2
f 144//1 129//1 130//1
f 128//4 1//4 28//4
f 144//5 143//5 129//5
f 142//2 192//2 143//2
f 206//6 205//6 208//6
f 203//5 202//5 206//5
f 204//2 203//2 208//2
f 212//6 211//6 214//6
f 209//1 210//1 211//1
f 8//5 99//5 107//5
f 97//2 8//2 104//2
f 107//6 10//6 104//6
f 8//3 97//3 99//3
f 97//4 147//4 7//4
f 150//4 119//4 117//4
f 120//5 121//5 116//5
f 121//1 150//1 202//1
f 116//6 202//6 118//6
f 120//3 119//3 121//3
f 8//3 146//3 97//3
f 125//4 124//4 123//4
f 126//5 127//5 120//5
f 124//2 126//2 119//2
f 187//1 189//1 121//1
f 188//5 187//5 151//5
f 98//4 97//4 96//4
f 117//4 204//4 207//4
f 202//1 117//1 205//1
f 210//4 118//4 213//4
f 116//5 209//5 212//5
f 118//2 116//2 214//2
f 215//8 216//8 79//8
f 216//6 215//6 74//6
f 79//3 81//3 218//3
f 76//5 215//5 218//5
f 81//4 216//4 217//4
f 70//1 222//1 72//1
f 220//6 219//6 72//6
f 95//3 93//3 222//3
f 70//5 219//5 222//5
f 93//4 220//4 221//4
f 160//2 158//2 159//2
f 227//6 224//6 225//6
f 227//2 225//2 226//2
f 175//5 31//5 36//5
f 175//3 29//3 31//3
f 163//5 164//5 159//5
f 161//4 166//4 162//4
f 159//6 165//6 161//6
f 170//4 168//4 173//4
f 159//6 161//6 169//6
f 171//5 159//5 172//5
f 173//1 161//1 171//1
f 174//6 170//6 176//6
f 176//5 172//5 175//5
f 172//2 170//2 177//2
f 29//4 178//4 174//4
f 175//3 177//3 29//3
f 225//4 223//4 228//4
f 160//1 158//1 224//1
f 226//5 160//5 227//5
f 228//3 158//3 226//3
f 192//4 1//4 230//4
f 2//5 24//5 229//5
f 25//3 3//3 24//3
f 27//5 25//5 26//5
f 26//1 24//1 128//1
f 24//3 1//3 191//3
f 4//6 2//6 230//6
