# Blender v2.70 (sub 0) OBJ File: 'BlockeryLogo.blend'
# www.blender.org
o Plane.005
v 0.500000 0.500000 -2.500000
v 1.500000 0.500000 -2.500000
v 1.500000 -0.500000 -2.500000
v 0.500000 -0.500000 -2.500000
v 0.500000 0.500000 2.500000
v 1.500000 0.500000 2.500000
v 0.500000 -0.500000 2.500000
v 1.500000 -0.500000 2.500000
v 3.500000 -0.500000 0.500000
v 4.500000 0.500000 -0.500000
v 4.500000 -0.500000 0.500000
v 3.500000 0.500000 -0.500000
v 4.500000 -0.500000 -2.500000
v 3.500000 0.500000 -2.500000
v 4.500000 0.500000 -2.500000
v 4.500000 0.500000 0.500000
v 3.500000 0.500000 0.500000
v 1.500000 0.500000 0.500000
v 1.500000 0.500000 -0.500000
v 3.500000 0.500000 2.500000
v 4.500000 0.500000 2.500000
v 3.500000 -0.500000 -2.500000
v 3.500000 -0.500000 -0.500000
v 4.500000 -0.500000 -0.500000
v 1.500000 -0.500000 0.500000
v 1.500000 -0.500000 -0.500000
v 3.500000 -0.500000 2.500000
v 4.500000 -0.500000 2.500000
v 3.500000 0.500000 0.500000
v 3.500000 0.500000 -0.500000
v 3.500000 -0.500000 0.500000
v 3.500000 -0.500000 -0.500000
vn 0.000000 -1.000000 0.000000
vn 0.000000 1.000000 0.000000
vn 0.000000 0.000000 1.000000
vn -1.000000 0.000000 0.000000
vn 1.000000 0.000000 0.000000
vn 0.000000 0.000000 -1.000000
s off
f 3//1 8//1 7//1
f 5//2 6//2 2//2
f 5//3 7//3 8//3
f 1//4 4//4 7//4
f 6//5 8//5 3//5
f 2//6 3//6 4//6
f 19//6 30//6 32//6
f 20//2 21//2 16//2
f 11//1 28//1 27//1
f 18//2 29//2 30//2
f 12//2 10//2 15//2
f 13//1 24//1 23//1
f 10//5 24//5 13//5
f 14//4 22//4 23//4
f 25//3 31//3 29//3
f 17//4 9//4 27//4
f 20//3 27//3 28//3
f 16//6 11//6 9//6
f 15//6 13//6 22//6
f 12//3 23//3 24//3
f 29//5 31//5 32//5
f 26//4 25//4 18//4
f 21//5 28//5 11//5
f 12//4 23//4 9//4
f 26//1 32//1 31//1
f 4//1 3//1 7//1
f 1//2 5//2 2//2
f 6//3 5//3 8//3
f 5//4 1//4 7//4
f 2//5 6//5 3//5
f 1//6 2//6 4//6
f 26//6 19//6 32//6
f 17//2 20//2 16//2
f 9//1 11//1 27//1
f 19//2 18//2 30//2
f 14//2 12//2 15//2
f 22//1 13//1 23//1
f 15//5 10//5 13//5
f 12//4 14//4 23//4
f 18//3 25//3 29//3
f 20//4 17//4 27//4
f 21//3 20//3 28//3
f 17//6 16//6 9//6
f 14//6 15//6 22//6
f 10//3 12//3 24//3
f 30//5 29//5 32//5
f 19//4 26//4 18//4
f 16//5 21//5 11//5
f 17//4 12//4 9//4
f 25//1 26//1 31//1
