# Blender v2.70 (sub 0) OBJ File: 'BlockeryLogo.blend'
# www.blender.org
o Plane.007
v -8.500000 -0.500000 -2.500000
v -6.500000 -0.500000 -2.500000
v -5.500000 -0.500000 -2.500000
v -6.500000 -0.500000 1.500000
v -5.500000 -0.500000 2.500000
v -6.500000 -0.500000 2.500000
v -9.500000 -0.500000 2.500000
v -8.500000 -0.500000 2.500000
v -8.500000 -0.500000 1.500000
v -9.500000 -0.500000 -2.500000
v -8.500000 -0.500000 -1.500000
v -6.500000 -0.500000 -1.500000
v -8.500000 0.500000 -2.500000
v -6.500000 0.500000 -2.500000
v -5.500000 0.500000 -2.500000
v -6.500000 0.500000 1.500000
v -5.500000 0.500000 2.500000
v -6.500000 0.500000 2.500000
v -9.500000 0.500000 2.500000
v -8.500000 0.500000 2.500000
v -8.500000 0.500000 1.500000
v -9.500000 0.500000 -2.500000
v -8.500000 0.500000 -1.500000
v -6.500000 0.500000 -1.500000
vn 0.000000 -1.000000 0.000000
vn 0.000000 1.000000 0.000000
vn -1.000000 0.000000 0.000000
vn 0.000000 0.000000 1.000000
vn 0.000000 0.000000 -1.000000
vn 1.000000 0.000000 0.000000
s off
f 5//1 6//1 2//1
f 8//1 7//1 10//1
f 22//2 19//2 20//2
f 14//2 18//2 17//2
f 8//1 9//1 4//1
f 11//1 1//1 2//1
f 16//2 21//2 20//2
f 14//2 13//2 23//2
f 7//3 19//3 22//3
f 12//4 24//4 23//4
f 9//5 21//5 16//5
f 4//6 16//6 18//6
f 2//5 14//5 15//5
f 6//3 18//3 14//3
f 11//3 23//3 13//3
f 5//4 17//4 18//4
f 2//6 14//6 24//6
f 3//6 15//6 17//6
f 1//5 13//5 14//5
f 8//4 20//4 19//4
f 1//6 13//6 20//6
f 6//4 18//4 20//4
f 10//5 22//5 13//5
f 8//3 20//3 21//3
f 3//1 5//1 2//1
f 1//1 8//1 10//1
f 13//2 22//2 20//2
f 15//2 14//2 17//2
f 6//1 8//1 4//1
f 12//1 11//1 2//1
f 18//2 16//2 20//2
f 24//2 14//2 23//2
f 10//3 7//3 22//3
f 11//4 12//4 23//4
f 4//5 9//5 16//5
f 6//6 4//6 18//6
f 3//5 2//5 15//5
f 2//3 6//3 14//3
f 1//3 11//3 13//3
f 6//4 5//4 18//4
f 12//6 2//6 24//6
f 5//6 3//6 17//6
f 2//5 1//5 14//5
f 7//4 8//4 19//4
f 8//6 1//6 20//6
f 8//4 6//4 20//4
f 1//5 10//5 13//5
f 9//3 8//3 21//3
